<?xml version="1.0" standalone="no"?>
<!DOCTYPE svg PUBLIC "-//W3C//DTD SVG 20010904//EN"
 "http://www.w3.org/TR/2001/REC-SVG-20010904/DTD/svg10.dtd">
<svg version="1.0" xmlns="http://www.w3.org/2000/svg"
 width="200.000000pt" height="77.000000pt" viewBox="0 0 200.000000 77.000000"
 preserveAspectRatio="xMidYMid meet">

<g transform="translate(0.000000,77.000000) scale(0.100000,-0.100000)"
fill="#000000" stroke="none">
<path d="M1130 742 c0 -18 5 -32 10 -32 6 0 8 11 4 28 -10 39 -14 40 -14 4z"/>
<path d="M1268 745 c-6 -30 -3 -43 8 -33 3 4 4 19 2 35 l-3 28 -7 -30z"/>
<path d="M991 715 c0 -13 28 -50 33 -44 3 2 -4 15 -14 29 -11 14 -20 21 -19
15z"/>
<path d="M1396 695 c-9 -14 -13 -25 -9 -25 10 0 36 40 30 46 -2 3 -12 -7 -21
-21z"/>
<path d="M894 605 c11 -8 24 -15 30 -15 5 0 1 7 -10 15 -10 8 -23 14 -29 14
-5 0 -1 -6 9 -14z"/>
<path d="M1496 605 c-11 -8 -15 -15 -10 -15 6 0 19 7 30 15 10 8 15 14 9 14
-5 0 -19 -6 -29 -14z"/>
<path d="M813 493 c9 -14 47 -24 47 -12 0 5 -4 9 -9 9 -5 0 -17 3 -27 7 -11 4
-15 3 -11 -4z"/>
<path d="M1568 493 c-10 -2 -18 -8 -18 -13 0 -10 38 -1 46 11 5 9 1 10 -28 2z"/>
<path d="M1183 369 c-17 -17 -4 -39 22 -39 13 0 25 6 28 14 6 15 -11 36 -28
36 -6 0 -16 -5 -22 -11z"/>
<path d="M803 353 c9 -2 23 -2 30 0 6 3 -1 5 -18 5 -16 0 -22 -2 -12 -5z"/>
<path d="M1583 353 c9 -2 23 -2 30 0 6 3 -1 5 -18 5 -16 0 -22 -2 -12 -5z"/>
<path d="M0 145 l0 -145 35 0 c35 0 35 0 35 45 l0 45 69 0 c98 0 121 -11 121
-55 0 -33 2 -35 35 -35 35 0 35 0 35 45 0 35 -4 47 -21 55 -20 11 -20 12 -2
32 27 30 23 101 -7 133 -23 24 -28 25 -162 25 l-138 0 0 -145z m255 65 c3 -11
3 -29 0 -40 -6 -18 -15 -20 -96 -20 l-89 0 0 40 0 40 89 0 c81 0 90 -2 96 -20z"/>
<path d="M433 152 c-40 -77 -73 -142 -73 -146 0 -3 20 -6 44 -6 42 0 45 2 56
35 l12 35 87 0 87 0 17 -35 c15 -31 21 -35 57 -35 l41 0 -73 143 -73 142 -55
3 -55 3 -72 -139z m155 33 c12 -25 22 -48 22 -50 0 -3 -25 -5 -56 -5 l-55 0
27 50 c15 28 30 50 34 50 3 0 16 -20 28 -45z"/>
<path d="M790 145 l0 -145 135 0 c131 0 137 1 160 25 23 22 25 31 25 123 0 90
-2 100 -23 120 -22 20 -33 22 -160 22 l-137 0 0 -145z m245 0 l0 -80 -87 -3
-88 -3 0 86 0 86 88 -3 87 -3 0 -80z"/>
<path d="M1170 145 l0 -145 35 0 35 0 0 145 0 145 -35 0 -35 0 0 -145z"/>
<path d="M1290 190 c0 -109 14 -161 48 -179 12 -6 71 -11 132 -11 104 0 112 1
135 25 24 23 25 30 25 145 l0 120 -35 0 -34 0 -3 -112 -3 -113 -87 -3 c-80 -3
-88 -1 -98 18 -6 12 -11 42 -10 68 1 26 1 68 1 95 -1 47 -1 47 -36 47 l-35 0
0 -100z"/>
<path d="M1702 274 c-17 -12 -22 -25 -22 -63 0 -78 11 -85 137 -91 96 -4 108
-7 111 -24 3 -11 -4 -26 -14 -33 -25 -18 -135 -17 -160 2 -10 8 -34 15 -51 15
-26 0 -33 -4 -33 -20 0 -11 9 -29 20 -40 18 -18 33 -20 139 -20 105 0 121 2
145 21 21 17 26 29 26 68 0 79 -11 85 -140 89 l-111 4 3 26 c3 27 4 27 86 30
67 2 83 0 88 -13 4 -9 19 -15 40 -15 27 0 34 4 34 20 0 11 -9 29 -20 40 -18
18 -33 20 -138 20 -90 0 -123 -4 -140 -16z"/>
</g>
</svg>
